<?xml version="1.0" encoding="UTF-8" standalone="no"?>
<svg
   xmlns:dc="http://purl.org/dc/elements/1.1/"
   xmlns:cc="http://creativecommons.org/ns#"
   xmlns:rdf="http://www.w3.org/1999/02/22-rdf-syntax-ns#"
   xmlns:svg="http://www.w3.org/2000/svg"
   xmlns="http://www.w3.org/2000/svg"
   xmlns:sodipodi="http://sodipodi.sourceforge.net/DTD/sodipodi-0.dtd"
   xmlns:inkscape="http://www.inkscape.org/namespaces/inkscape"
   version="1.1"
   id="svg2"
   xml:space="preserve"
   width="1482.64"
   height="993.95068"
   viewBox="0 0 1482.64 993.95068"
   sodipodi:docname="black.ai"><metadata
     id="metadata8"><rdf:RDF><cc:Work
         rdf:about=""><dc:format>image/svg+xml</dc:format><dc:type
           rdf:resource="http://purl.org/dc/dcmitype/StillImage" /></cc:Work></rdf:RDF></metadata><defs
     id="defs6" /><sodipodi:namedview
     pagecolor="#ffffff"
     bordercolor="#666666"
     borderopacity="1"
     objecttolerance="10"
     gridtolerance="10"
     guidetolerance="10"
     inkscape:pageopacity="0"
     inkscape:pageshadow="2"
     inkscape:window-width="640"
     inkscape:window-height="480"
     id="namedview4" /><g
     id="g10"
     inkscape:groupmode="layer"
     inkscape:label="black"
     transform="matrix(1.3333333,0,0,-1.3333333,0,993.95067)"><g
       id="g12"
       transform="translate(928.8184,330.1407)"><path
         d="m 0,0 -307.547,-37.295 -0.996,-11.753 307.663,37.504 z"
         style="fill:#000000;fill-opacity:1;fill-rule:nonzero;stroke:none"
         id="path14" /></g><g
       id="g16"
       transform="translate(223.6367,244.1641)"><path
         d="m 0,0 -1.019,-11.688 349.761,42.593 1.255,11.737 z"
         style="fill:#000000;fill-opacity:1;fill-rule:nonzero;stroke:none"
         id="path18" /></g><g
       id="g20"
       transform="translate(518.7017,383.0713)"><path
         d="m 0,0 18.43,2.154 -5.086,-65.478 -18.906,-2.302 z m 119.567,14.215 -5.067,-65.221 -18.882,-2.301 0.483,5.969 5.033,59.399 z m -322.698,-38.104 18.431,2.155 -5.148,-66.278 -18.901,-2.16 z m 633.114,-16.503 144.502,17.34 -32.965,23.347 -82.778,-10.048 2.979,39.867 -23.98,22.159 27.884,30.286 4.247,52.114 -26.572,-3.237 -2.633,-36.222 -20.42,-22.21 1.738,21.163 2.866,35.191 -27.758,-3.381 -4.071,-50.9 -0.03,-0.004 -7.44,-93.714 -27.725,-3.365 6.926,92.633 -27.458,-3.248 -35.373,-61.635 4.715,58.017 -27.653,-3.271 -7.451,-92.377 -73.823,-8.988 2.112,24.917 21.979,2.783 1.567,18.021 -21.994,-2.512 1.835,21.677 18.432,2.153 27.152,3.545 2.375,27.318 -73.961,-8.795 -7.106,-92.468 -27.942,-3.403 6.936,92.717 L 75.502,36.373 68,-56.668 41.005,-59.955 47.958,33.016 2.132,27.596 3.98,50.719 49.69,56.63 80.386,87.422 -21.653,75.029 l -7.713,-95.659 0.11,0.013 -3.9,-48.369 -27.868,-3.391 2.087,27.097 -29.685,-30.459 -19.673,-2.394 0.661,0.119 5.618,66.285 18.431,2.153 -2.169,-25.264 29.265,28.169 2.432,27.959 -73.592,-8.705 -7.579,-93.997 -26.962,-3.281 7.018,93.823 -73.592,-8.705 -7.591,-94.15 -27.656,-3.367 11.808,143.993 -27.245,-3.302 -34.582,-51.6 -23.656,44.488 -27.727,-3.397 -12.159,-144.01 -76.882,-9.36 -31.061,-31.065 133.521,16.273 -0.109,-0.013 9.702,115.821 23.813,-44.202 34.64,53.922 -10.063,-118.463 359.857,43.857 -7.604,-99.694 29.389,32.042 5.758,71.009 203.435,24.793 36.021,64.627 -0.004,-0.059 -0.908,-11.855 -0.045,0.038 -1.772,-23.764 -0.002,-0.026 -0.004,-0.049 -2.049,-25.724 24.955,3.046 7.451,0.907 22.908,2.791 20.779,2.532 6.728,0.82 0.06,0.007 2.04,27.269 0.012,0.133 0.946,12.657 1.235,14.573 1.637,19.307 v 10e-4 l 0.296,3.594 v -0.002 l 17.412,-16.217 -2.269,-31.6 z"
         style="fill:#000000;fill-opacity:1;fill-rule:nonzero;stroke:none"
         id="path22" /></g><g
       id="g24"
       transform="translate(853.5605,456.7603)"><path
         d="m 0,0 -14.182,4.049 -12.606,-6.991 3.539,12.386 -9.401,7.394 11.687,1.508 4.381,12.286 6.226,-10.843 12.411,1.542 -7.951,-10.52 z"
         style="fill:#000000;fill-opacity:1;fill-rule:nonzero;stroke:none"
         id="path26" /></g></g></svg>
